<?xml version="1.0" encoding="utf-8"?>
<!-- Generator: Adobe Illustrator 23.0.3, SVG Export Plug-In . SVG Version: 6.00 Build 0)  -->
<svg version="1.1" id="Layer_1" xmlns="http://www.w3.org/2000/svg" xmlns:xlink="http://www.w3.org/1999/xlink" x="0px" y="0px"
	 viewBox="0 0 148 148" style="enable-background:new 0 0 148 148;" xml:space="preserve">
<style type="text/css">
	.st0{fill:url(#SVGID_1_);}
	.st1{fill:url(#SVGID_2_);}
	.st2{fill:url(#SVGID_3_);}
	.st3{fill:url(#SVGID_4_);}
	.st4{fill:url(#SVGID_5_);}
	.st5{fill:url(#SVGID_6_);}
	.st6{fill:url(#SVGID_7_);}
	.st7{fill:url(#SVGID_8_);}
	.st8{fill:url(#SVGID_9_);}
	.st9{fill:url(#SVGID_10_);}
	.st10{fill:url(#SVGID_11_);}
	.st11{fill:url(#SVGID_12_);}
	.st12{fill:url(#SVGID_13_);}
	.st13{fill:url(#SVGID_14_);}
	.st14{fill:url(#SVGID_15_);}
	.st15{fill:url(#SVGID_16_);}
	.st16{fill:url(#SVGID_17_);}
	.st17{fill:url(#SVGID_18_);}
	.st18{fill:url(#SVGID_19_);}
	.st19{fill:url(#SVGID_20_);}
	.st20{fill:#010101;}
	.st21{fill:url(#SVGID_21_);}
	.st22{fill:url(#SVGID_22_);}
	.st23{fill:url(#SVGID_23_);}
	.st24{fill:url(#SVGID_24_);}
	.st25{fill:url(#SVGID_25_);}
	.st26{fill:url(#SVGID_26_);}
	.st27{fill:#FF462E;}
	.st28{fill:url(#SVGID_27_);}
	.st29{fill:url(#SVGID_28_);}
	.st30{fill:url(#SVGID_29_);}
	.st31{fill:url(#SVGID_30_);}
	.st32{fill:url(#SVGID_31_);}
	.st33{fill:url(#SVGID_32_);}
	.st34{fill:url(#SVGID_33_);}
	.st35{fill:url(#SVGID_34_);}
	.st36{fill:url(#SVGID_35_);}
	.st37{fill:url(#SVGID_36_);}
	.st38{fill:url(#SVGID_37_);}
	.st39{fill:url(#SVGID_38_);}
	.st40{fill:url(#SVGID_39_);}
	.st41{fill:#EFEFEF;}
	.st42{fill:#FFB70D;}
	.st43{fill:#FF3100;}
	.st44{fill:#FFCC01;}
	.st45{fill:#FF3600;}
	.st46{fill:#DF2A00;}
	.st47{fill:#FC3100;}
	.st48{fill:#DF2901;}
	.st49{fill:url(#SVGID_40_);}
	.st50{fill:url(#SVGID_41_);}
	.st51{fill:url(#SVGID_42_);}
	.st52{fill:url(#SVGID_43_);}
	.st53{fill:url(#SVGID_44_);}
	.st54{fill:url(#SVGID_45_);}
	.st55{fill:url(#SVGID_46_);}
	.st56{fill:url(#SVGID_47_);}
	.st57{fill:#F46F24;}
	.st58{fill:#EF2F3E;}
	.st59{fill:#28A54A;}
	.st60{fill:#27B0C3;}
	.st61{fill:#494C55;}
	.st62{fill:#71BD43;}
	.st63{fill:#F05924;}
	.st64{fill:url(#SVGID_48_);}
	.st65{fill:#F24C8A;}
	.st66{fill:#D9D9D9;}
	.st67{fill:#7DD2F0;}
	.st68{fill:#EEE25C;}
	.st69{fill:#464655;}
	.st70{fill:#61B9D9;}
	.st71{fill:#FF6B58;}
	.st72{fill:#FFCE6E;}
	.st73{fill:#F4432C;}
	.st74{fill:#6B6B82;}
	.st75{fill:#B9E578;}
</style>
<g>
	<path d="M115.5,26.8c6.7,5.4,11.4,10.7,14.6,17.2c1.4,2.8,2.8,5.9-1,7.7c-3.5,1.6-5.1-1.1-6.4-3.8c-5.5-11-14.3-17.6-26.2-20.4
		c-2.5-0.6-4.5-0.7-5.7,2.1c-0.5,1.1-1.6,2.3-2.7,2.8c-5,2.1-3,6.3-3.2,9.8c-0.1,2,1.7,1.7,2.9,2c14.2,4.5,21.9,14.3,22.1,29
		c0.2,19.5,0,39,0.1,58.5c0,4.4-1.7,6.3-6.2,6.3c-15.3-0.1-30.7-0.1-46,0c-4.5,0-6.3-1.7-6.2-6.2c0.1-19.7,0-39.3,0.1-59
		c0.1-13.7,8.4-24.4,21.6-28.4c1.4-0.4,3.8,0.1,3.3-2.6c-0.5-2.7,1.6-6.1-1.5-8.2c-2.1-1.4-4.1-2.9-5.2-5.2
		c-0.6-1.3-1.4-1.7-2.7-1.7c-5.2,0.1-10.4-0.3-15.5,0.4c-9.8,1.4-16.6,10.3-16.9,21.2c-0.2,8.7,0,17.3-0.1,26c0,1.7,0,3.2,1.9,4.1
		c4.9,2.5,6.5,6.9,6.6,12c0.1,7.3,0,14.7,0.1,22c0.1,4.2-1.8,6.1-6,6.1c-4.5-0.1-9,0-13.5,0c-3.6,0-5.6-1.6-5.6-5.4
		c0.1-7.8,0-15.7,0.1-23.5c0.1-4.6,1.7-8.6,5.9-10.8c2.3-1.2,2.4-2.8,2.4-4.9c-0.1-8.2-0.1-16.3,0-24.5C26.5,31,38.2,19,56.7,18.3
		c1.7-0.1,3.3-0.1,5,0c4,0.3,7.2-0.3,10.1-4.1c4.8-6.3,14.2-5.4,18.8,1.3c1.6,2.3,3.1,2.9,5.7,2.9c10.7-0.1,21.3-0.1,32,0
		c3.1,0,6.5,0.2,6.3,4.5c-0.1,3.9-3.3,4.1-6.2,4.1C124.5,26.8,120.7,26.8,115.5,26.8z"/>
	<path class="st43" d="M80.5,76.9c-5.8,0-11.6-0.1-17.4,0c-2.5,0.1-3.5-0.6-3.5-3.3c0-12.2,9.2-21.8,21.1-21.7
		c11.8,0.1,20.8,9.5,20.8,21.4c0,2.8-0.7,3.7-3.6,3.6C92.1,76.7,86.3,76.9,80.5,76.9z"/>
	<path class="st43" d="M80.5,110.1c5.7,0,11.3,0.1,17-0.1c2.8-0.1,4.3,0.3,4,3.7c-0.4,5.1,1.7,11.8-0.9,15c-2.7,3.3-9.6,0.9-14.7,1
		c-7.5,0.2-15-0.1-22.4,0.1c-3.2,0.1-4-1-3.9-4c0.2-4,0.3-8,0-12c-0.2-3.2,1.1-3.9,4-3.8C69.2,110.3,74.9,110.1,80.5,110.1z"/>
	<path class="st44" d="M80.2,101.9c-5.8,0-11.6-0.1-17.4,0c-2.4,0.1-3-0.8-3.1-3.1c-0.7-13.7-0.8-13.7,13-13.7
		c8.3,0,16.6,0.2,24.9-0.1c3.4-0.1,4.3,1,4,4.2c-0.4,4.1,1.7,9.4-0.8,12c-2.5,2.5-7.9,0.6-12,0.7C85.8,102,83,101.9,80.2,101.9z"/>
	<path class="st44" d="M26.4,98.3c0-3-0.1-6,0-8.9c0.1-2.5,1.6-4.1,4.1-4.1c2.4,0,4,1.5,4,4.1c0.1,6.1,0,12.3,0.1,18.4
		c0.1,3.6-2.5,2.4-4.1,2.3c-1.6,0-4.3,1.3-4.1-2.3C26.5,104.6,26.4,101.5,26.4,98.3C26.4,98.3,26.4,98.3,26.4,98.3z"/>
	<path class="st43" d="M84.6,22.3c0.1,2.6-1.4,4.1-3.8,4.3c-2.4,0.1-4.1-1.3-4.3-3.8c-0.2-2.5,1.4-4.1,3.8-4.3
		C82.7,18.4,84.4,19.7,84.6,22.3z"/>
</g>
</svg>
